<svg width="98" height="126" viewBox="0 0 98 126" fill="none" xmlns="http://www.w3.org/2000/svg">
<g clip-path="url(#clip0_209_5436)">
<path d="M18.404 85.3198L7.45312 114.054L27.0227 108.209L37.7032 125.524L49.0765 93.0005L60.4498 125.524L71.1303 108.209L90.6999 114.054L79.6983 85.3198" stroke="#7E7E7E" stroke-linejoin="bevel"/>
<path d="M94.9414 48.7347L94.7724 48.5988C92.1699 46.4577 91.7812 42.6514 93.8598 40.0175L93.9612 39.8816C96.7158 36.4151 95.0428 31.2833 90.7503 30.0769L90.5813 30.0259C87.3197 29.1253 85.3932 25.7947 86.2213 22.5321L86.2551 22.3962C87.3704 18.1141 83.7033 14.0868 79.3094 14.7495H79.208C75.845 15.2593 72.7186 12.9993 72.1609 9.66876V9.60079C71.4173 5.2167 66.4151 3.02466 62.6634 5.40362L62.6127 5.43761C59.7567 7.25581 55.9374 6.45716 54.0785 3.6194C51.6112 -0.101975 46.1526 -0.101975 43.6853 3.6194L43.6346 3.68737C41.7757 6.50814 37.9564 7.32378 35.1004 5.50558C31.3487 3.10962 26.3465 5.31866 25.6198 9.70274V9.83869C25.0283 13.1692 21.9019 15.4292 18.5558 14.9365H18.522C14.1282 14.2737 10.4779 18.301 11.5763 22.5831L11.627 22.787C12.472 26.0496 10.5286 29.3802 7.26697 30.2808H7.16557C2.89001 31.4872 1.20006 36.636 3.95467 40.1025L4.08987 40.2724C6.1854 42.9063 5.77982 46.7296 3.1773 48.8537L3.059 48.9386C-0.354689 51.7594 0.219893 57.129 4.14057 59.1682L4.30956 59.2531C7.30077 60.8164 8.50063 64.4698 6.99658 67.4775L6.92898 67.6135C4.95174 71.5727 7.67256 76.2627 12.1171 76.5346H12.2523C15.6322 76.7555 18.2347 79.6102 18.0826 82.9748V83.0767C17.8798 87.4948 22.3075 90.6894 26.4648 89.1431H26.5324C29.7264 87.9366 33.2583 89.4999 34.5089 92.6435V92.6775C36.1482 96.8067 41.5053 97.9282 44.6824 94.8186L44.7331 94.7676C47.1666 92.3887 51.0535 92.3887 53.4532 94.7676C56.6303 97.8942 61.9705 96.7557 63.6098 92.6265L63.6436 92.5246C64.8772 89.381 68.443 87.8176 71.6201 88.9901C75.7943 90.5535 80.2051 87.3588 80.0192 82.9408V82.7708C79.8671 79.4063 82.4527 76.5346 85.8495 76.3307H85.9171C90.3447 76.0588 93.0656 71.3688 91.1052 67.4096L91.0038 67.2056C89.5167 64.198 90.6996 60.5446 93.6908 58.9812L93.8091 58.9303C97.7467 56.8742 98.3213 51.5215 94.8907 48.7007H94.9245L94.9414 48.7347ZM48.9242 85.8635C28.2223 85.8635 11.4242 69.1768 11.4242 48.5648C11.4242 27.9528 28.2223 11.3 48.9242 11.3C69.626 11.3 86.4241 27.9868 86.4241 48.5988C86.4241 69.2108 69.6429 85.8975 48.9242 85.8975V85.8635Z" stroke="#7E7E7E" stroke-miterlimit="10"/>
<path d="M48.9916 27.8169L54.9571 41.4449L69.6765 42.9233L58.6412 52.847L61.7845 67.3756L48.9916 59.8819L36.2156 67.3756L39.3589 52.847L28.3066 42.9233L43.043 41.4449L48.9916 27.8169Z" stroke="#7E7E7E" stroke-miterlimit="10"/>
</g>
<defs>
<clipPath id="clip0_209_5436">
<rect width="98" height="126" fill="white"/>
</clipPath>
</defs>
</svg>
