<svg width="90" height="131" viewBox="0 0 90 131" fill="none" xmlns="http://www.w3.org/2000/svg">
<g clip-path="url(#clip0_3510_2635)">
<path d="M1 0.5H0.5V129.73L1.18 129.46L45 112.27L88.82 129.46L89.5 129.73V0.5H1Z" stroke="#BB9B52"/>
<path d="M8.29906 62.3299H10.5191C11.4991 62.3299 12.2391 62.4799 12.7291 62.7699C13.2191 63.0599 13.4691 63.5599 13.4691 64.2699C13.4691 64.5699 13.4091 64.8499 13.2991 65.0899C13.1791 65.3299 13.0091 65.5299 12.7891 65.6899C12.5691 65.8499 12.2891 65.9599 11.9691 66.0199V66.0699C12.3091 66.1199 12.6191 66.2199 12.8791 66.3699C13.1491 66.5099 13.3491 66.7099 13.4991 66.9699C13.6491 67.2299 13.7291 67.5499 13.7291 67.9499C13.7291 68.4299 13.6191 68.8399 13.3891 69.1699C13.1691 69.4999 12.8491 69.7499 12.4391 69.9199C12.0291 70.0899 11.5491 70.1699 10.9891 70.1699H8.28906V62.3199L8.29906 62.3299ZM9.20906 65.6999H10.7091C11.3891 65.6999 11.8691 65.5899 12.1291 65.3599C12.3891 65.1299 12.5191 64.8099 12.5191 64.3699C12.5191 63.9299 12.3591 63.5999 12.0491 63.3999C11.7391 63.1999 11.2391 63.0999 10.5491 63.0999H9.19906V65.6899L9.20906 65.6999ZM9.20906 66.4699V69.41H10.8391C11.5391 69.41 12.0291 69.2699 12.3191 68.9999C12.6091 68.7299 12.7591 68.3599 12.7591 67.8899C12.7591 67.5899 12.6891 67.3399 12.5591 67.1299C12.4291 66.9199 12.2191 66.7599 11.9291 66.6399C11.6391 66.5299 11.2491 66.4699 10.7591 66.4699H9.20906Z" fill="black"/>
<path d="M19.7704 70.18H15.4004V62.33H19.7704V63.14H16.3104V65.68H19.5704V66.47H16.3104V69.38H19.7704V70.19V70.18Z" fill="black"/>
<path d="M25.95 68.09C25.95 68.56 25.83 68.95 25.6 69.28C25.37 69.61 25.05 69.86 24.63 70.03C24.21 70.2 23.73 70.29 23.16 70.29C22.86 70.29 22.58 70.28 22.32 70.25C22.06 70.22 21.81 70.18 21.59 70.13C21.37 70.08 21.17 70.01 21 69.93V69.05C21.27 69.16 21.6 69.26 21.98 69.36C22.36 69.46 22.77 69.5 23.19 69.5C23.58 69.5 23.92 69.45 24.19 69.34C24.46 69.23 24.67 69.08 24.81 68.88C24.95 68.68 25.02 68.44 25.02 68.16C25.02 67.88 24.96 67.67 24.84 67.49C24.72 67.31 24.53 67.14 24.25 67C23.98 66.85 23.6 66.69 23.13 66.52C22.8 66.4 22.5 66.27 22.25 66.13C22 65.99 21.78 65.83 21.61 65.65C21.44 65.47 21.31 65.26 21.22 65.03C21.13 64.79 21.09 64.52 21.09 64.22C21.09 63.8 21.2 63.44 21.41 63.14C21.62 62.84 21.92 62.61 22.3 62.45C22.68 62.29 23.11 62.21 23.6 62.21C24.02 62.21 24.41 62.25 24.76 62.33C25.12 62.41 25.44 62.51 25.74 62.65L25.46 63.43C25.18 63.31 24.88 63.21 24.56 63.14C24.24 63.06 23.92 63.02 23.58 63.02C23.24 63.02 22.96 63.07 22.73 63.17C22.5 63.27 22.32 63.41 22.2 63.59C22.08 63.77 22.02 63.98 22.02 64.23C22.02 64.51 22.08 64.74 22.19 64.92C22.31 65.1 22.49 65.26 22.75 65.41C23.01 65.55 23.35 65.7 23.77 65.85C24.23 66.02 24.62 66.2 24.95 66.38C25.27 66.57 25.52 66.8 25.69 67.07C25.86 67.34 25.94 67.68 25.94 68.1L25.95 68.09Z" fill="black"/>
<path d="M29.9603 70.1799H29.0403V63.1299H26.5703V62.3199H32.4203V63.1299H29.9603V70.1799Z" fill="black"/>
<path d="M38.8705 70.1799H37.9505V63.1299H35.4805V62.3199H41.3305V63.1299H38.8705V70.1799Z" fill="black"/>
<path d="M44.6395 62.33C45.2795 62.33 45.8195 62.41 46.2395 62.57C46.6595 62.73 46.9695 62.97 47.1795 63.3C47.3895 63.63 47.4895 64.04 47.4895 64.55C47.4895 64.97 47.4095 65.31 47.2595 65.59C47.1095 65.87 46.9095 66.09 46.6695 66.26C46.4295 66.43 46.1695 66.56 45.8895 66.66L48.0395 70.19H46.9795L45.0595 66.91H43.4295V70.19H42.5195V62.34H44.6395V62.33ZM44.5895 63.12H43.4395V66.13H44.6895C45.3295 66.13 45.7995 66 46.1095 65.74C46.4095 65.48 46.5595 65.09 46.5595 64.58C46.5595 64.07 46.3995 63.67 46.0795 63.45C45.7595 63.23 45.2695 63.12 44.5995 63.12H44.5895Z" fill="black"/>
<path d="M54.2402 70.18L53.2702 67.6901H50.1202L49.1602 70.18H48.2402L51.3102 62.3H52.1302L55.1802 70.18H54.2302H54.2402ZM53.0002 66.88L52.0802 64.4001C52.0602 64.3401 52.0202 64.2301 51.9802 64.0801C51.9302 63.9301 51.8802 63.78 51.8302 63.62C51.7802 63.46 51.7402 63.3301 51.7102 63.2401C51.6702 63.3901 51.6402 63.53 51.5902 63.68C51.5502 63.82 51.5102 63.9601 51.4702 64.0801C51.4302 64.2001 51.4002 64.31 51.3702 64.39L50.4402 66.8701H53.0102L53.0002 66.88Z" fill="black"/>
<path d="M62.4995 66.18C62.4995 67.06 62.3395 67.8 62.0195 68.4C61.6995 69 61.2295 69.44 60.6195 69.74C60.0095 70.04 59.2695 70.19 58.3995 70.19H56.2695V62.34H58.6395C59.4395 62.34 60.1295 62.49 60.6995 62.78C61.2795 63.07 61.7195 63.5 62.0295 64.07C62.3395 64.64 62.4995 65.35 62.4995 66.19V66.18ZM61.5395 66.21C61.5395 65.5 61.4195 64.92 61.1895 64.46C60.9595 64 60.6095 63.66 60.1595 63.44C59.7095 63.22 59.1495 63.1 58.4995 63.1H57.1795V69.39H58.2895C59.3695 69.39 60.1795 69.12 60.7295 68.59C61.2695 68.06 61.5395 67.26 61.5395 66.21Z" fill="black"/>
<path d="M64.25 70.18V62.33H65.16V70.18H64.25Z" fill="black"/>
<path d="M73.4603 70.1799H72.4103L68.1303 63.5799H68.0903C68.1003 63.7599 68.1103 63.9599 68.1303 64.1799C68.1403 64.3999 68.1603 64.6399 68.1603 64.8899C68.1603 65.1399 68.1703 65.4 68.1703 65.66V70.1699H67.3203V62.3199H68.3703L72.6303 68.8899H72.6703C72.6703 68.7699 72.6503 68.5899 72.6403 68.3599C72.6303 68.1299 72.6203 67.8799 72.6103 67.6099C72.6103 67.3399 72.6003 67.0999 72.6003 66.8699V62.3199H73.4603V70.1699V70.1799Z" fill="black"/>
<path d="M78.9594 66.07H81.6994V69.88C81.2894 70.02 80.8695 70.12 80.4295 70.19C79.9995 70.26 79.5095 70.29 78.9695 70.29C78.1495 70.29 77.4695 70.13 76.8995 69.8C76.3395 69.47 75.9095 69.01 75.6195 68.41C75.3295 67.81 75.1895 67.09 75.1895 66.26C75.1895 65.43 75.3494 64.74 75.6694 64.13C75.9894 63.52 76.4494 63.05 77.0594 62.72C77.6694 62.39 78.3995 62.22 79.2495 62.22C79.6895 62.22 80.0994 62.26 80.4894 62.34C80.8794 62.42 81.2495 62.53 81.5795 62.68L81.2295 63.47C80.9395 63.35 80.6194 63.24 80.2694 63.15C79.9194 63.06 79.5595 63.02 79.1895 63.02C78.5495 63.02 77.9995 63.15 77.5395 63.42C77.0795 63.68 76.7294 64.06 76.4894 64.54C76.2494 65.02 76.1294 65.6 76.1294 66.26C76.1294 66.92 76.2394 67.48 76.4494 67.97C76.6594 68.46 76.9895 68.83 77.4395 69.1C77.8895 69.37 78.4594 69.5 79.1694 69.5C79.5194 69.5 79.8295 69.48 80.0795 69.44C80.3295 69.4 80.5694 69.35 80.7694 69.29V66.88H78.9395V66.06L78.9594 66.07Z" fill="black"/>
<path d="M14.4709 75.02C14.0409 75.02 13.6509 75.1 13.3009 75.24C12.9509 75.39 12.6609 75.6 12.4209 75.88C12.1809 76.16 11.9909 76.5 11.8609 76.9C11.7309 77.3 11.6709 77.74 11.6709 78.24C11.6709 78.9 11.7709 79.47 11.9809 79.96C12.1909 80.45 12.4909 80.82 12.9009 81.09C13.3109 81.35 13.8209 81.49 14.4409 81.49C14.7909 81.49 15.1209 81.46 15.4309 81.4C15.7409 81.34 16.0409 81.27 16.3309 81.18V81.97C16.0409 82.08 15.7409 82.16 15.4309 82.21C15.1209 82.26 14.7409 82.29 14.3109 82.29C13.5109 82.29 12.8409 82.12 12.3109 81.79C11.7709 81.46 11.3709 80.99 11.1109 80.39C10.8409 79.78 10.7109 79.07 10.7109 78.25C10.7109 77.66 10.7909 77.11 10.9609 76.62C11.1309 76.13 11.3709 75.7 11.6909 75.34C12.0109 74.98 12.4009 74.71 12.8709 74.51C13.3409 74.31 13.8709 74.22 14.4809 74.22C14.8809 74.22 15.2609 74.26 15.6309 74.34C16.0009 74.42 16.3309 74.53 16.6309 74.68L16.2609 75.45C16.0109 75.34 15.7309 75.24 15.4409 75.15C15.1409 75.07 14.8209 75.02 14.4709 75.02Z" fill="black"/>
<path d="M24.8506 78.25C24.8506 78.86 24.7706 79.41 24.6206 79.9C24.4706 80.39 24.2406 80.82 23.9306 81.18C23.6306 81.54 23.2506 81.81 22.8106 82C22.3706 82.19 21.8406 82.29 21.2506 82.29C20.6606 82.29 20.1106 82.19 19.6606 82C19.2106 81.81 18.8306 81.53 18.5306 81.17C18.2306 80.81 18.0106 80.38 17.8606 79.89C17.7106 79.39 17.6406 78.84 17.6406 78.24C17.6406 77.44 17.7706 76.73 18.0406 76.13C18.3106 75.53 18.7106 75.05 19.2506 74.72C19.7906 74.38 20.4606 74.21 21.2806 74.21C22.1006 74.21 22.7106 74.38 23.2406 74.71C23.7706 75.04 24.1706 75.51 24.4506 76.11C24.7206 76.71 24.8606 77.43 24.8606 78.24L24.8506 78.25ZM18.6006 78.25C18.6006 78.92 18.6906 79.49 18.8806 79.98C19.0706 80.47 19.3606 80.84 19.7506 81.11C20.1406 81.38 20.6406 81.51 21.2506 81.51C21.8606 81.51 22.3606 81.38 22.7506 81.11C23.1406 80.85 23.4306 80.47 23.6106 79.98C23.8006 79.49 23.8906 78.92 23.8906 78.25C23.8906 77.24 23.6806 76.45 23.2506 75.87C22.8306 75.3 22.1606 75.01 21.2706 75.01C20.6606 75.01 20.1606 75.14 19.7706 75.4C19.3806 75.66 19.0806 76.03 18.8906 76.51C18.7006 76.99 18.6006 77.57 18.6006 78.24V78.25Z" fill="black"/>
<path d="M32.7298 82.1799H31.6798L27.3998 75.5799H27.3598C27.3698 75.7599 27.3798 75.9599 27.3998 76.1799C27.4198 76.3999 27.4298 76.6399 27.4298 76.8899C27.4298 77.1399 27.4398 77.4 27.4398 77.66V82.1699H26.5898V74.3199H27.6398L31.8998 80.8899H31.9398C31.9398 80.7699 31.9198 80.5899 31.9098 80.3599C31.8998 80.1299 31.8898 79.8799 31.8798 79.6099C31.8798 79.3399 31.8698 79.0999 31.8698 78.8699V74.3199H32.7298V82.1699V82.1799Z" fill="black"/>
<path d="M41.1109 78.18C41.1109 79.06 40.9509 79.8 40.6309 80.4C40.3109 81 39.8409 81.44 39.2309 81.74C38.6209 82.04 37.8809 82.19 37.0109 82.19H34.8809V74.34H37.2509C38.0509 74.34 38.7409 74.49 39.3109 74.78C39.8809 75.07 40.3309 75.5 40.6409 76.07C40.9509 76.64 41.1109 77.35 41.1109 78.19V78.18ZM40.1509 78.21C40.1509 77.5 40.0309 76.92 39.8009 76.46C39.5709 76 39.2209 75.66 38.7709 75.44C38.3209 75.22 37.7609 75.1 37.1109 75.1H35.7909V81.39H36.9009C37.9809 81.39 38.7909 81.12 39.3409 80.59C39.8809 80.06 40.1509 79.26 40.1509 78.21Z" fill="black"/>
<path d="M42.8594 82.18V74.33H43.7694V82.18H42.8594Z" fill="black"/>
<path d="M48.3392 82.1799H47.4192V75.1299H44.9492V74.3199H50.7992V75.1299H48.3392V82.1799Z" fill="black"/>
<path d="M51.9902 82.18V74.33H52.9002V82.18H51.9902Z" fill="black"/>
<path d="M61.8702 78.25C61.8702 78.86 61.7902 79.41 61.6402 79.9C61.4902 80.4 61.2602 80.82 60.9502 81.18C60.6502 81.54 60.2702 81.81 59.8302 82C59.3802 82.19 58.8602 82.29 58.2702 82.29C57.6802 82.29 57.1302 82.19 56.6802 82C56.2302 81.81 55.8502 81.53 55.5502 81.17C55.2502 80.81 55.0302 80.38 54.8802 79.89C54.7302 79.39 54.6602 78.84 54.6602 78.24C54.6602 77.44 54.7902 76.73 55.0602 76.13C55.3202 75.52 55.7302 75.05 56.2702 74.72C56.8102 74.38 57.4802 74.21 58.3002 74.21C59.1202 74.21 59.7302 74.38 60.2602 74.71C60.7902 75.04 61.1902 75.51 61.4702 76.11C61.7402 76.71 61.8802 77.43 61.8802 78.24L61.8702 78.25ZM55.6202 78.25C55.6202 78.92 55.7102 79.49 55.9102 79.98C56.1002 80.47 56.3902 80.84 56.7802 81.11C57.1702 81.38 57.6702 81.51 58.2802 81.51C58.8902 81.51 59.3902 81.38 59.7802 81.11C60.1702 80.85 60.4602 80.47 60.6402 79.98C60.8302 79.49 60.9202 78.92 60.9202 78.25C60.9202 77.24 60.7102 76.45 60.2802 75.87C59.8602 75.3 59.1902 75.01 58.3002 75.01C57.6902 75.01 57.1902 75.14 56.8002 75.4C56.4102 75.66 56.1102 76.03 55.9202 76.51C55.7302 76.99 55.6302 77.57 55.6302 78.24L55.6202 78.25Z" fill="black"/>
<path d="M69.7491 82.1799H68.6991L64.4191 75.5799H64.3791C64.3891 75.7599 64.3991 75.9599 64.4191 76.1799C64.4291 76.3999 64.4491 76.6399 64.4591 76.8899C64.4591 77.1399 64.4691 77.4 64.4691 77.66V82.1699H63.6191V74.3199H64.6691L68.9291 80.8899H68.9691C68.9691 80.7699 68.9491 80.5899 68.9391 80.3599C68.9291 80.1299 68.9191 79.8799 68.9091 79.6099C68.8991 79.3399 68.8991 79.0999 68.8991 78.8699V74.3199H69.7591V82.1699L69.7491 82.1799Z" fill="black"/>
<path d="M76.3309 80.09C76.3309 80.56 76.2109 80.95 75.9809 81.28C75.7509 81.61 75.4309 81.86 75.0109 82.03C74.5909 82.2 74.1109 82.29 73.5409 82.29C73.2409 82.29 72.9609 82.28 72.7009 82.25C72.4309 82.22 72.1909 82.18 71.9709 82.13C71.7509 82.08 71.5509 82.01 71.3809 81.93V81.05C71.6509 81.16 71.9809 81.26 72.3609 81.36C72.7409 81.46 73.1509 81.5 73.5709 81.5C73.9609 81.5 74.3009 81.45 74.5709 81.34C74.8409 81.23 75.0509 81.08 75.1909 80.88C75.3309 80.68 75.4009 80.44 75.4009 80.16C75.4009 79.88 75.3409 79.67 75.2209 79.49C75.1009 79.31 74.9109 79.14 74.6309 79C74.3609 78.85 73.9809 78.69 73.5109 78.52C73.1809 78.4 72.8809 78.27 72.6309 78.13C72.3809 77.99 72.1609 77.83 71.9909 77.65C71.8209 77.47 71.6909 77.26 71.6009 77.03C71.5109 76.79 71.4709 76.52 71.4709 76.22C71.4709 75.8 71.5809 75.44 71.7909 75.14C72.0009 74.84 72.3009 74.61 72.6809 74.45C73.0609 74.29 73.4909 74.21 73.9809 74.21C74.4009 74.21 74.7909 74.25 75.1409 74.33C75.5009 74.41 75.8209 74.51 76.1209 74.65L75.8309 75.43C75.5509 75.31 75.2509 75.21 74.9309 75.14C74.6109 75.06 74.2909 75.02 73.9509 75.02C73.6109 75.02 73.3309 75.07 73.1009 75.17C72.8709 75.27 72.6909 75.41 72.5709 75.59C72.4509 75.77 72.3909 75.98 72.3909 76.23C72.3909 76.51 72.4509 76.74 72.5609 76.92C72.6809 77.1 72.8609 77.26 73.1209 77.41C73.3809 77.55 73.7109 77.7 74.1409 77.85C74.6009 78.02 74.9909 78.2 75.3209 78.38C75.6409 78.57 75.8909 78.8 76.0609 79.07C76.2309 79.34 76.3109 79.68 76.3109 80.1L76.3309 80.09Z" fill="black"/>
<path d="M30.0698 90.58H32.6198V93.91C32.2798 94.02 31.9298 94.11 31.5698 94.18C31.2098 94.25 30.7998 94.28 30.3398 94.28C29.6998 94.28 29.1598 94.15 28.7098 93.9C28.2598 93.65 27.9298 93.28 27.6898 92.78C27.4498 92.28 27.3398 91.68 27.3398 90.97C27.3398 90.3 27.4698 89.71 27.7298 89.22C27.9898 88.73 28.3698 88.35 28.8698 88.08C29.3698 87.81 29.9798 87.68 30.6998 87.68C31.0398 87.68 31.3798 87.72 31.7098 87.79C32.0398 87.86 32.3398 87.96 32.6098 88.08L32.1598 89.17C31.9598 89.07 31.7398 88.99 31.4898 88.92C31.2398 88.85 30.9698 88.82 30.6998 88.82C30.2998 88.82 29.9598 88.91 29.6698 89.09C29.3798 89.27 29.1498 89.53 28.9898 89.85C28.8298 90.18 28.7498 90.56 28.7498 91C28.7498 91.44 28.8098 91.79 28.9198 92.11C29.0298 92.43 29.2098 92.69 29.4598 92.87C29.7098 93.05 30.0298 93.14 30.4198 93.14C30.6098 93.14 30.7798 93.14 30.9098 93.11C31.0398 93.09 31.1698 93.07 31.2898 93.05V91.71H30.0698V90.58Z" fill="#898989"/>
<path d="M34.1504 94.18V87.76H35.5104V93.06H38.1204V94.18H34.1504Z" fill="#898989"/>
<path d="M45.0609 90.96C45.0609 91.46 45.0009 91.91 44.8809 92.31C44.7609 92.72 44.5709 93.07 44.3209 93.36C44.0709 93.65 43.7509 93.88 43.3709 94.03C42.9909 94.19 42.5309 94.27 42.0109 94.27C41.4909 94.27 41.0309 94.19 40.6509 94.03C40.2709 93.87 39.9509 93.65 39.7009 93.36C39.4509 93.07 39.2609 92.72 39.1409 92.31C39.0209 91.9 38.9609 91.45 38.9609 90.95C38.9609 90.29 39.0709 89.71 39.2909 89.21C39.5109 88.72 39.8409 88.33 40.3009 88.06C40.7609 87.79 41.3309 87.65 42.0309 87.65C42.7309 87.65 43.3009 87.79 43.7509 88.06C44.2009 88.33 44.5309 88.72 44.7509 89.21C44.9709 89.7 45.0809 90.29 45.0809 90.96H45.0609ZM40.3709 90.96C40.3709 91.41 40.4309 91.79 40.5409 92.12C40.6509 92.44 40.8309 92.69 41.0709 92.87C41.3109 93.04 41.6209 93.13 42.0009 93.13C42.3809 93.13 42.7009 93.04 42.9409 92.87C43.1809 92.7 43.3609 92.45 43.4609 92.12C43.5709 91.8 43.6309 91.41 43.6309 90.96C43.6309 90.29 43.5009 89.75 43.2509 89.37C43.0009 88.99 42.5809 88.79 42.0109 88.79C41.6309 88.79 41.3109 88.88 41.0709 89.05C40.8309 89.22 40.6509 89.47 40.5409 89.8C40.4309 90.12 40.3709 90.51 40.3709 90.96Z" fill="#898989"/>
<path d="M46.3906 87.76H48.3906C49.2506 87.76 49.8906 87.88 50.3306 88.12C50.7706 88.36 50.9906 88.78 50.9906 89.39C50.9906 89.63 50.9506 89.85 50.8706 90.05C50.7906 90.25 50.6806 90.41 50.5306 90.53C50.3806 90.65 50.2006 90.74 49.9906 90.78V90.82C50.2006 90.86 50.4006 90.94 50.5706 91.05C50.7406 91.16 50.8806 91.31 50.9906 91.52C51.0906 91.72 51.1506 91.99 51.1506 92.33C51.1506 92.72 51.0506 93.05 50.8606 93.33C50.6706 93.61 50.4006 93.82 50.0506 93.97C49.7006 94.12 49.2806 94.19 48.7906 94.19H46.3906V87.77V87.76ZM47.7506 90.3H48.5406C48.9406 90.3 49.2106 90.24 49.3606 90.11C49.5106 89.99 49.5906 89.8 49.5906 89.56C49.5906 89.32 49.5006 89.14 49.3206 89.03C49.1406 88.92 48.8506 88.87 48.4606 88.87H47.7406V90.3H47.7506ZM47.7506 91.38V93.05H48.6406C49.0506 93.05 49.3406 92.97 49.5006 92.81C49.6606 92.65 49.7406 92.44 49.7406 92.17C49.7406 92.01 49.7006 91.87 49.6306 91.75C49.5606 91.63 49.4406 91.54 49.2806 91.47C49.1106 91.4 48.8906 91.37 48.6006 91.37H47.7606L47.7506 91.38Z" fill="#898989"/>
<path d="M56.3691 94.18L55.8991 92.65H53.5591L53.0891 94.18H51.6191L53.8891 87.73H55.5591L57.8391 94.18H56.3691ZM55.5791 91.51L55.1091 90.02C55.0791 89.92 55.0391 89.79 54.9891 89.64C54.9391 89.48 54.8891 89.32 54.8491 89.16C54.7991 89 54.7591 88.86 54.7291 88.74C54.6991 88.86 54.6591 89.01 54.6091 89.19C54.5591 89.37 54.5091 89.54 54.4591 89.69C54.4091 89.84 54.3791 89.96 54.3591 90.03L53.8991 91.52H55.5691L55.5791 91.51Z" fill="#898989"/>
<path d="M58.6504 94.18V87.76H60.0104V93.06H62.6204V94.18H58.6504Z" fill="#898989"/>
<path d="M24.1504 97.76H26.1504C27.0104 97.76 27.6504 97.88 28.0904 98.12C28.5304 98.36 28.7504 98.78 28.7504 99.39C28.7504 99.63 28.7104 99.85 28.6304 100.05C28.5504 100.25 28.4404 100.41 28.2904 100.53C28.1404 100.65 27.9604 100.74 27.7504 100.78V100.82C27.9604 100.86 28.1604 100.94 28.3304 101.05C28.5004 101.16 28.6404 101.31 28.7504 101.52C28.8504 101.72 28.9104 101.99 28.9104 102.33C28.9104 102.72 28.8104 103.05 28.6204 103.33C28.4304 103.61 28.1604 103.82 27.8104 103.97C27.4604 104.12 27.0404 104.19 26.5504 104.19H24.1504V97.77V97.76ZM25.5104 100.3H26.3004C26.7004 100.3 26.9704 100.24 27.1204 100.11C27.2704 99.99 27.3504 99.8 27.3504 99.56C27.3504 99.32 27.2604 99.14 27.0804 99.03C26.9004 98.92 26.6104 98.87 26.2304 98.87H25.5104V100.3ZM25.5104 101.38V103.05H26.4004C26.8104 103.05 27.1004 102.97 27.2604 102.81C27.4204 102.65 27.5004 102.44 27.5004 102.17C27.5004 102.01 27.4604 101.87 27.3904 101.75C27.3204 101.63 27.2004 101.54 27.0404 101.47C26.8704 101.4 26.6504 101.37 26.3604 101.37H25.5204L25.5104 101.38Z" fill="#898989"/>
<path d="M35.4302 97.76V101.92C35.4302 102.36 35.3302 102.76 35.1402 103.12C34.9402 103.48 34.6502 103.76 34.2602 103.97C33.8702 104.18 33.3702 104.28 32.7702 104.28C31.9202 104.28 31.2702 104.06 30.8302 103.63C30.3902 103.2 30.1602 102.62 30.1602 101.91V97.77H31.5202V101.7C31.5202 102.23 31.6302 102.6 31.8502 102.82C32.0702 103.04 32.3902 103.14 32.8102 103.14C33.1102 103.14 33.3502 103.09 33.5402 102.99C33.7302 102.89 33.8602 102.73 33.9502 102.52C34.0402 102.31 34.0802 102.03 34.0802 101.7V97.78H35.4402L35.4302 97.76Z" fill="#898989"/>
<path d="M40.7996 102.4C40.7996 102.78 40.7096 103.11 40.5196 103.39C40.3296 103.67 40.0696 103.89 39.7096 104.04C39.3496 104.19 38.9296 104.27 38.4196 104.27C38.1996 104.27 37.9796 104.26 37.7696 104.23C37.5596 104.2 37.3496 104.16 37.1596 104.1C36.9696 104.04 36.7796 103.97 36.5996 103.89V102.62C36.8996 102.75 37.2196 102.88 37.5496 102.99C37.8796 103.1 38.1996 103.15 38.5296 103.15C38.7496 103.15 38.9296 103.12 39.0696 103.06C39.2096 103 39.3096 102.92 39.3696 102.82C39.4296 102.72 39.4596 102.6 39.4596 102.47C39.4596 102.31 39.4096 102.17 39.2996 102.06C39.1896 101.94 39.0396 101.84 38.8496 101.74C38.6596 101.64 38.4496 101.53 38.2096 101.42C38.0596 101.35 37.8996 101.26 37.7196 101.16C37.5396 101.06 37.3796 100.94 37.2196 100.79C37.0596 100.64 36.9296 100.47 36.8296 100.26C36.7296 100.05 36.6796 99.8 36.6796 99.51C36.6796 99.13 36.7696 98.8 36.9396 98.53C37.1196 98.26 37.3696 98.05 37.6896 97.9C38.0196 97.76 38.3996 97.68 38.8496 97.68C39.1796 97.68 39.4996 97.72 39.8096 97.8C40.1096 97.88 40.4296 97.99 40.7596 98.14L40.3196 99.2C40.0196 99.08 39.7596 98.99 39.5196 98.92C39.2896 98.85 39.0496 98.82 38.7996 98.82C38.6296 98.82 38.4896 98.85 38.3596 98.9C38.2396 98.95 38.1496 99.03 38.0896 99.13C38.0296 99.23 37.9996 99.34 37.9996 99.47C37.9996 99.62 38.0396 99.75 38.1296 99.85C38.2196 99.95 38.3496 100.05 38.5296 100.15C38.7096 100.25 38.9396 100.36 39.1996 100.49C39.5296 100.65 39.8096 100.81 40.0396 100.98C40.2696 101.15 40.4496 101.35 40.5796 101.57C40.7096 101.8 40.7696 102.08 40.7696 102.42L40.7996 102.4Z" fill="#898989"/>
<path d="M41.9609 104.18V97.76H43.3209V104.18H41.9609Z" fill="#898989"/>
<path d="M50.6392 104.18H48.9092L46.1192 99.32H46.0792C46.0892 99.52 46.0992 99.73 46.1092 99.93C46.1092 100.14 46.1292 100.34 46.1392 100.54C46.1392 100.74 46.1592 100.95 46.1692 101.15V104.17H44.9492V97.75H46.6692L49.4592 102.56H49.4892C49.4892 102.36 49.4792 102.16 49.4692 101.97C49.4592 101.78 49.4492 101.58 49.4492 101.38C49.4492 101.18 49.4392 100.99 49.4292 100.79V97.75H50.6592V104.17L50.6392 104.18Z" fill="#898989"/>
<path d="M55.9598 104.18H52.2598V97.76H55.9598V98.88H53.6198V100.29H55.7898V101.41H53.6198V103.07H55.9598V104.19V104.18Z" fill="#898989"/>
<path d="M61.0906 102.4C61.0906 102.78 61.0006 103.11 60.8106 103.39C60.6206 103.67 60.3606 103.89 60.0006 104.04C59.6506 104.19 59.2206 104.27 58.7106 104.27C58.4906 104.27 58.2706 104.26 58.0606 104.23C57.8506 104.2 57.6406 104.16 57.4506 104.1C57.2606 104.04 57.0706 103.97 56.8906 103.89V102.62C57.1906 102.75 57.5106 102.88 57.8406 102.99C58.1706 103.1 58.4906 103.15 58.8206 103.15C59.0406 103.15 59.2206 103.12 59.3606 103.06C59.5006 103 59.6006 102.92 59.6606 102.82C59.7206 102.72 59.7506 102.6 59.7506 102.47C59.7506 102.31 59.7006 102.17 59.5906 102.06C59.4806 101.94 59.3306 101.84 59.1406 101.74C58.9506 101.64 58.7406 101.53 58.5006 101.42C58.3506 101.35 58.1906 101.26 58.0106 101.16C57.8306 101.06 57.6706 100.94 57.5106 100.79C57.3506 100.64 57.2206 100.47 57.1206 100.26C57.0206 100.05 56.9706 99.8 56.9706 99.51C56.9706 99.13 57.0606 98.8 57.2306 98.53C57.4106 98.26 57.6606 98.05 57.9806 97.9C58.3106 97.76 58.6906 97.68 59.1406 97.68C59.4706 97.68 59.7906 97.72 60.1006 97.8C60.4006 97.88 60.7206 97.99 61.0506 98.14L60.6106 99.2C60.3106 99.08 60.0506 98.99 59.8206 98.92C59.5906 98.85 59.3506 98.82 59.1006 98.82C58.9306 98.82 58.7906 98.85 58.6706 98.9C58.5506 98.95 58.4606 99.03 58.4006 99.13C58.3406 99.23 58.3106 99.34 58.3106 99.47C58.3106 99.62 58.3506 99.75 58.4406 99.85C58.5306 99.95 58.6606 100.05 58.8406 100.15C59.0206 100.25 59.2506 100.36 59.5106 100.49C59.8406 100.65 60.1206 100.81 60.3506 100.98C60.5806 101.15 60.7606 101.35 60.8906 101.57C61.0206 101.8 61.0806 102.08 61.0806 102.42L61.0906 102.4Z" fill="#898989"/>
<path d="M66.0496 102.4C66.0496 102.78 65.9596 103.11 65.7696 103.39C65.5796 103.67 65.3196 103.89 64.9596 104.04C64.6096 104.19 64.1796 104.27 63.6696 104.27C63.4496 104.27 63.2296 104.26 63.0196 104.23C62.8096 104.2 62.5996 104.16 62.4096 104.1C62.2196 104.04 62.0296 103.97 61.8496 103.89V102.62C62.1496 102.75 62.4696 102.88 62.7996 102.99C63.1296 103.1 63.4496 103.15 63.7796 103.15C63.9996 103.15 64.1796 103.12 64.3196 103.06C64.4596 103 64.5596 102.92 64.6196 102.82C64.6796 102.72 64.7096 102.6 64.7096 102.47C64.7096 102.31 64.6596 102.17 64.5496 102.06C64.4396 101.94 64.2896 101.84 64.0996 101.74C63.9096 101.64 63.6996 101.53 63.4596 101.42C63.3096 101.35 63.1496 101.26 62.9696 101.16C62.7896 101.06 62.6296 100.94 62.4696 100.79C62.3096 100.64 62.1796 100.47 62.0796 100.26C61.9796 100.05 61.9296 99.8 61.9296 99.51C61.9296 99.13 62.0196 98.8 62.1896 98.53C62.3696 98.26 62.6196 98.05 62.9396 97.9C63.2696 97.76 63.6496 97.68 64.0996 97.68C64.4296 97.68 64.7496 97.72 65.0596 97.8C65.3596 97.88 65.6796 97.99 66.0096 98.14L65.5696 99.2C65.2696 99.08 65.0096 98.99 64.7796 98.92C64.5496 98.85 64.3096 98.82 64.0596 98.82C63.8896 98.82 63.7496 98.85 63.6296 98.9C63.5096 98.95 63.4196 99.03 63.3596 99.13C63.2996 99.23 63.2696 99.34 63.2696 99.47C63.2696 99.62 63.3096 99.75 63.3996 99.85C63.4896 99.95 63.6196 100.05 63.7996 100.15C63.9796 100.25 64.2096 100.36 64.4696 100.49C64.7996 100.65 65.0796 100.81 65.3096 100.98C65.5396 101.15 65.7196 101.35 65.8496 101.57C65.9796 101.8 66.0396 102.08 66.0396 102.42L66.0496 102.4Z" fill="#898989"/>
<path d="M34.3898 39.12L30.5898 48.93L37.3798 46.94L41.0898 52.85L45.0398 41.75L48.9898 52.85L52.6998 46.94L59.4898 48.93L55.6698 39.12" stroke="#BB9B52" stroke-linejoin="bevel"/>
<path d="M60.8896 26.59C59.9896 25.86 59.8496 24.56 60.5696 23.66L60.6096 23.61C61.5696 22.43 60.9896 20.68 59.4996 20.26L59.4396 20.24C58.3096 19.93 57.6396 18.8 57.9296 17.68V17.63C58.3296 16.17 57.0596 14.79 55.5296 15.02H55.4896C54.3196 15.19 53.2396 14.42 53.0496 13.29V13.27C52.7896 11.77 51.0596 11.03 49.7596 11.84H49.7396C48.7496 12.47 47.4196 12.2 46.7796 11.23C45.9196 9.95997 44.0296 9.95997 43.1696 11.23L43.1496 11.25C42.5096 12.21 41.1796 12.49 40.1896 11.87C38.8896 11.05 37.1496 11.81 36.8996 13.3V13.35C36.6896 14.49 35.6096 15.26 34.4496 15.09H34.4396C32.9196 14.86 31.6496 16.24 32.0296 17.7L32.0496 17.77C32.3396 18.88 31.6696 20.02 30.5396 20.33H30.4996C29.0196 20.74 28.4296 22.5 29.3896 23.68L29.4396 23.74C30.1696 24.64 30.0296 25.94 29.1196 26.67L29.0796 26.7C27.8996 27.66 28.0996 29.5 29.4596 30.19L29.5196 30.22C30.5596 30.75 30.9696 32 30.4496 33.03L30.4296 33.08C29.7396 34.43 30.6896 36.03 32.2296 36.12H32.2796C33.4496 36.2 34.3596 37.17 34.2996 38.32V38.35C34.2296 39.86 35.7696 40.95 37.2096 40.42H37.2296C38.3396 40.01 39.5596 40.54 39.9996 41.61C40.5696 43.03 42.4296 43.41 43.5296 42.35L43.5496 42.33C44.3896 41.52 45.7396 41.52 46.5796 42.33C47.6796 43.4 49.5296 43.01 50.0996 41.6V41.57C50.5396 40.5 51.7796 39.96 52.8796 40.36C54.3296 40.89 55.8596 39.8 55.7896 38.3V38.24C55.7396 37.09 56.6296 36.11 57.8096 36.04H57.8296C59.3696 35.95 60.3096 34.35 59.6296 33L59.5896 32.93C59.0696 31.9 59.4796 30.66 60.5196 30.12L60.5596 30.1C61.9296 29.4 62.1296 27.57 60.9396 26.61L60.8996 26.58L60.8896 26.59ZM44.9796 39.31C37.7996 39.31 31.9696 33.62 31.9696 26.58C31.9696 19.54 37.7996 13.86 44.9796 13.86C52.1596 13.86 57.9896 19.55 57.9896 26.59C57.9896 33.63 52.1696 39.32 44.9796 39.32V39.31Z" stroke="#BB9B52" stroke-miterlimit="10"/>
<path d="M45.0001 19.49L47.0701 24.14L52.1801 24.64L48.3501 28.03L49.4401 32.99L45.0001 30.43L40.5701 32.99L41.6601 28.03L37.8301 24.64L42.9401 24.14L45.0001 19.49Z" stroke="#BB9B52" stroke-miterlimit="10"/>
</g>
<defs>
<clipPath id="clip0_3510_2635">
<rect width="90" height="130.47" fill="white"/>
</clipPath>
</defs>
</svg>
