<svg width="98" height="109" viewBox="0 0 98 109" fill="none" xmlns="http://www.w3.org/2000/svg">
<g clip-path="url(#clip0_209_5441)">
<path d="M12.3779 26.0081C17.7735 11.0488 32.1352 0.359375 48.9999 0.359375C65.8646 0.359375 80.2263 11.0559 85.6291 26.0153" stroke="#7E7E7E" stroke-miterlimit="10"/>
<path d="M53.4717 77.665C52.0074 77.8304 50.5142 77.9166 48.9994 77.9166C47.4846 77.9166 46.0059 77.8304 44.5488 77.665" stroke="#7E7E7E" stroke-miterlimit="10"/>
<path d="M31.7964 5.31228C31.5295 8.07987 33.7367 10.5168 36.1821 11.8539C38.6274 13.1909 41.4189 13.8307 43.8065 15.2756C46.6269 16.9793 50.0028 22.1982 52.3615 19.905C53.8835 18.4242 52.3831 15.671 52.3904 13.5504C52.3904 12.9178 52.3976 12.2636 52.6645 11.6885C53.494 9.86982 56.0403 9.95608 57.9879 9.47445C60.5414 8.83467 62.6261 6.62059 63.1021 4.03271" stroke="#7E7E7E" stroke-miterlimit="10"/>
<path d="M76.8291 12.4001C74.5569 13.7013 72.3641 15.2468 70.8853 17.3962C69.3273 19.675 68.7141 22.7588 69.9548 25.2173C71.4913 28.2509 75.4658 29.8468 76.0861 33.1894C76.6848 36.453 73.6625 39.5297 74.1313 42.8077C74.3189 44.116 75.0402 45.2806 75.7615 46.3876C76.1727 47.0274 76.5911 47.66 77.0167 48.2926" stroke="#7E7E7E" stroke-miterlimit="10"/>
<path d="M39.2401 65.7609C40.6755 66.9829 42.89 67.0476 44.6284 66.2856C46.3668 65.5236 47.6941 64.0716 48.7184 62.5116C51.207 58.7305 52.2313 54.2304 54.1861 50.1689C55.975 46.4524 58.5934 42.9588 59.0334 38.8829C59.1921 37.3948 59.0118 35.7918 58.074 34.6057C57.0642 33.3333 55.3691 32.7654 53.7244 32.5426C50.5073 32.1113 47.0377 32.7151 44.1524 31.2774C41.0939 29.7534 39.3194 26.2166 36.023 25.2678C32.8347 24.3548 29.3002 26.4611 27.9441 29.4084C26.588 32.3557 27.0424 35.8349 28.3047 38.8182C29.567 41.8014 31.5651 44.4252 33.3685 47.1353C35.2439 49.9532 36.9751 52.9005 37.141 56.3007C37.2781 59.2265 36.6938 63.5899 39.2329 65.7537L39.2401 65.7609Z" stroke="#7E7E7E" stroke-miterlimit="10"/>
<path d="M19.6781 82.6539L12.2267 71.0732C11.6064 70.1099 11.2024 69.0173 11.0582 67.8743L9.3847 54.8989C9.23322 53.7416 10.1421 52.7136 11.3179 52.7136C15.1409 52.7136 18.4374 55.3878 19.2236 59.1114L20.6879 66.07C22.0729 68.169 42.9771 76.4071 39.8321 94.2131C39.6878 95.0182 39.6373 95.8377 39.7311 96.6429L41.2242 108.935" stroke="#7E7E7E" stroke-miterlimit="10"/>
<path d="M22.9527 108.943L21.7841 102.149C21.5244 100.64 20.8247 99.2452 19.7716 98.1309L7.35029 85.0262C2.40196 79.8001 -0.108272 72.7913 0.432726 65.6746L1.558 50.7728L2.30097 33.2399C2.34425 32.2047 3.20264 31.3853 4.24135 31.3853C8.36015 31.3853 11.6638 34.7639 11.5556 38.8685L11.2238 52.7137" stroke="#7E7E7E" stroke-miterlimit="10"/>
<path d="M78.3294 82.6539L85.7807 71.0732C86.401 70.1099 86.805 69.0173 86.9493 67.8743L88.6227 54.8989C88.7742 53.7416 87.8653 52.7136 86.6896 52.7136C82.8665 52.7136 79.57 55.3878 78.7838 59.1114L77.3195 66.07C75.9345 68.169 55.0304 76.4071 58.1754 94.2131C58.3196 95.0182 58.3701 95.8377 58.2764 96.6429L56.7832 108.935" stroke="#7E7E7E" stroke-miterlimit="10"/>
<path d="M75.0469 108.942L76.2154 102.149C76.4751 100.64 77.1748 99.2451 78.2279 98.1308L90.6493 85.0261C95.5976 79.8072 98.1078 72.7984 97.5668 65.6817L96.4415 50.7799L95.6986 33.247C95.6553 32.2118 94.7969 31.3923 93.7582 31.3923C89.6394 31.3923 86.3357 34.771 86.4439 38.8756L86.7757 52.7208" stroke="#7E7E7E" stroke-miterlimit="10"/>
</g>
<defs>
<clipPath id="clip0_209_5441">
<rect width="98" height="109" fill="white"/>
</clipPath>
</defs>
</svg>
